<?xml version="1.0" encoding="UTF-8"?>
<svg id="Ebene_1" data-name="Ebene 1" xmlns="http://www.w3.org/2000/svg" viewBox="0 0 512 612">
  <defs>
    <style>
      .cls-1 {
        fill: none;
        stroke: #000;
        stroke-miterlimit: 10;
        stroke-width: 2px;
      }
    </style>
  </defs>
  <path d="m262.91,223.32c-7.22,7.04-16,15.18-26.33,24.41-5.85,5.21-11.06,9.42-15.64,12.62-4.76,3.48-9.74,5.21-14.95,5.21s-9.19-2.74-11.93-8.23c-1.46-2.93-2.19-6.08-2.19-9.46,0-11.52,4.66-25.83,13.99-42.93,8.32-15.27,19.8-30.08,34.43-44.44,14.54-14.35,24.83-21.53,30.86-21.53,1.46,0,2.74.55,3.84,1.65,1.01,1.1,1.51,2.42,1.51,3.98,0,2.56-.92,4.66-2.74,6.31-1.46,1.28-3.61,2.79-6.45,4.53-5.12,3.2-11.48,8.5-19.06,15.91-12.07,11.89-21.67,24.73-28.8,38.54-7.87,15.27-11.8,26.06-11.8,32.37,0,1.37.41,2.61,1.23,3.7,1.1,1.56,2.56,2.33,4.39,2.33,3.47,0,9.42-3.34,17.83-10.01,10.06-7.77,18.19-15.04,24.41-21.81,18.1-19.57,31.68-35.43,40.74-47.59,8.69-11.8,16-21.21,21.94-28.25,5.03-5.94,8.92-8.92,11.66-8.92,1.83,0,3.38.92,4.66,2.74,1.01,1.46,1.51,3.15,1.51,5.07,0,3.2-1.74,7.04-5.21,11.52-24.78,32.55-41.19,54.73-49.24,66.52-12.16,18.1-22.72,36.9-31.68,56.37-10.33,22.13-16.6,36.9-18.79,44.3-2.1,6.86-4.07,11.2-5.9,13.03-1.83,1.83-3.89,2.74-6.17,2.74-4.3,0-6.45-2.06-6.45-6.17,0-4.48,2.88-13.62,8.64-27.43,6.77-16.37,15.04-32.64,24.83-48.83,8.32-13.72,13.94-23.13,16.87-28.25Z"/>
  <g>
    <path d="m93.1,407.74l-13.9-30.82h4.9l11.3,25.63,11.3-25.63h4.9l-13.9,30.82v20.59h-4.61v-20.59Z"/>
    <path d="m122.55,376.93h5.76l15.19,51.41h-4.9l-4.18-14.98h-18l-4.18,14.98h-4.9l15.19-51.41Zm10.87,32.54l-7.92-28.94h-.14l-7.92,28.94h15.98Z"/>
    <path d="m178.71,410.91c-.34,5.9-1.8,10.43-4.39,13.57-2.59,3.14-6.22,4.72-10.87,4.72-5.28,0-9.34-2.12-12.17-6.37-2.83-4.25-4.25-10.98-4.25-20.2s1.42-15.95,4.25-20.2c2.83-4.25,6.89-6.37,12.17-6.37,2.59,0,4.82.43,6.7,1.3,1.87.86,3.41,2.02,4.61,3.46,1.2,1.44,2.08,3.12,2.63,5.04.55,1.92.83,3.94.83,6.05h-4.61c0-3.5-.86-6.37-2.59-8.6s-4.25-3.35-7.56-3.35c-1.82,0-3.47.4-4.93,1.19-1.46.79-2.7,2.09-3.71,3.89-1.01,1.8-1.79,4.14-2.34,7.02-.55,2.88-.83,6.41-.83,10.58s.28,7.7.83,10.58c.55,2.88,1.33,5.22,2.34,7.02,1.01,1.8,2.24,3.1,3.71,3.89,1.46.79,3.11,1.19,4.93,1.19,3.26,0,5.8-1.28,7.6-3.85,1.8-2.57,2.82-6.08,3.06-10.55h4.61Z"/>
    <path d="m209.52,402.7h-20.09v25.63h-4.61v-51.41h4.61v21.89h20.09v-21.89h4.61v51.41h-4.61v-25.63Z"/>
    <path d="m231.84,380.81h-13.25v-3.89h31.1v3.89h-13.25v47.52h-4.61v-47.52Z"/>
    <path d="m265.97,405.94v3.89h-15.62v-3.89h15.62Z"/>
    <path d="m285.27,376.93h5.76l15.19,51.41h-4.9l-4.18-14.98h-18l-4.18,14.98h-4.9l15.19-51.41Zm10.87,32.54l-7.92-28.94h-.14l-7.92,28.94h15.98Z"/>
    <path d="m325.95,405.94v3.89h-15.62v-3.89h15.62Z"/>
    <path d="m334.15,376.93h4.61v47.52h21.31v3.89h-25.92v-51.41Z"/>
    <path d="m364.39,402.63c0-9.22,1.42-15.95,4.25-20.2,2.83-4.25,6.89-6.37,12.17-6.37s9.28,2.12,12.13,6.37c2.86,4.25,4.28,10.98,4.28,20.2s-1.43,15.95-4.28,20.2c-2.86,4.25-6.9,6.37-12.13,6.37s-9.34-2.12-12.17-6.37c-2.83-4.25-4.25-10.98-4.25-20.2Zm4.61,0c0,4.18.28,7.7.83,10.58.55,2.88,1.33,5.22,2.34,7.02,1.01,1.8,2.24,3.1,3.71,3.89,1.46.79,3.11,1.19,4.93,1.19s3.47-.4,4.93-1.19c1.46-.79,2.7-2.09,3.71-3.89,1.01-1.8,1.79-4.14,2.34-7.02.55-2.88.83-6.41.83-10.58s-.28-7.7-.83-10.58c-.55-2.88-1.33-5.22-2.34-7.02-1.01-1.8-2.24-3.1-3.71-3.89-1.46-.79-3.11-1.19-4.93-1.19s-3.47.4-4.93,1.19c-1.46.79-2.7,2.09-3.71,3.89-1.01,1.8-1.79,4.14-2.34,7.02-.55,2.88-.83,6.41-.83,10.58Z"/>
    <path d="m414.51,380.81h-13.25v-3.89h31.1v3.89h-13.25v47.52h-4.61v-47.52Z"/>
  </g>
  <g>
    <path d="m93.14,457.11c0-1.41-.33-2.51-.99-3.31s-1.7-1.2-3.1-1.2c-.7,0-1.32.11-1.86.32-.53.21-.98.51-1.34.88-.36.37-.64.8-.83,1.29-.19.49-.29,1.02-.29,1.6,0,1.13.27,2,.82,2.62.54.62,1.23,1.11,2.05,1.49.82.37,1.71.7,2.67.98.96.28,1.85.64,2.67,1.09s1.5,1.04,2.05,1.79c.54.75.82,1.79.82,3.13,0,1.11-.17,2.08-.5,2.91s-.8,1.53-1.41,2.09c-.61.57-1.33.99-2.18,1.26-.84.28-1.79.42-2.83.42-2.15,0-3.8-.56-4.94-1.7-1.14-1.13-1.71-2.83-1.71-5.09v-.67h2.05v.86c0,1.47.38,2.65,1.14,3.53.76.88,1.89,1.33,3.41,1.33s2.63-.37,3.55-1.12c.92-.75,1.38-1.92,1.38-3.52,0-.85-.16-1.55-.48-2.1s-.74-1-1.25-1.36c-.51-.36-1.1-.66-1.77-.9-.67-.23-1.35-.46-2.03-.69-.68-.22-1.36-.48-2.03-.77s-1.26-.66-1.78-1.1c-.51-.45-.93-1.01-1.25-1.7s-.48-1.55-.48-2.59c0-.9.14-1.72.43-2.46.29-.75.7-1.38,1.23-1.9.53-.52,1.19-.93,1.97-1.23.78-.3,1.67-.45,2.67-.45,2.13,0,3.7.53,4.7,1.58,1,1.06,1.5,2.61,1.5,4.65h-2.05Z"/>
    <path d="m103.41,451.26h2.56l6.75,22.84h-2.18l-1.86-6.65h-8l-1.86,6.65h-2.18l6.75-22.84Zm4.83,14.46l-3.52-12.86h-.06l-3.52,12.86h7.1Z"/>
    <path d="m114.6,451.26h2.05v22.84h-2.05v-22.84Z"/>
    <path d="m120.36,451.26h2.05v21.11h9.47v1.73h-11.52v-22.84Z"/>
    <path d="m134.11,451.26h2.05v22.84h-2.05v-22.84Z"/>
    <path d="m139.87,451.26h2.75l8.73,19.9h.06v-19.9h2.05v22.84h-2.75l-8.73-19.9h-.06v19.9h-2.05v-22.84Z"/>
    <path d="m163.51,464.18v-1.73h7.33v11.64h-1.6v-3.77h-.06c-.36,1.28-1,2.29-1.92,3.04s-1.95,1.12-3.1,1.12c-2.35,0-4.15-.94-5.41-2.83-1.26-1.89-1.89-4.88-1.89-8.97s.63-7.08,1.89-8.97c1.26-1.89,3.06-2.83,5.41-2.83,1.09,0,2.03.17,2.83.51.8.34,1.46.81,1.98,1.41.52.6.93,1.31,1.22,2.14.29.83.46,1.74.53,2.72h-2.05c0-.68-.1-1.33-.29-1.95s-.47-1.16-.85-1.62c-.37-.46-.84-.82-1.41-1.09-.57-.27-1.22-.4-1.97-.4-.81,0-1.54.18-2.19.53s-1.2.93-1.65,1.73c-.45.8-.79,1.84-1.04,3.12-.25,1.28-.37,2.85-.37,4.7s.12,3.42.37,4.7c.24,1.28.59,2.32,1.04,3.12.45.8,1,1.38,1.65,1.73s1.38.53,2.19.53c1.54,0,2.71-.68,3.53-2.03.82-1.35,1.23-3.37,1.23-6.06v-.48h-5.41Z"/>
    <path d="m185,452.98h-5.89v-1.73h13.82v1.73h-5.89v21.11h-2.05v-21.11Z"/>
    <path d="m205.89,462.71h-8.92v11.39h-2.05v-22.84h2.05v9.72h8.92v-9.72h2.05v22.84h-2.05v-11.39Z"/>
    <path d="m211.52,451.26h11.32v1.73h-9.28v8.32h8.67v1.73h-8.67v9.34h9.56v1.73h-11.61v-22.84Z"/>
    <path d="m243.41,457.11c0-1.41-.33-2.51-.99-3.31s-1.7-1.2-3.1-1.2c-.7,0-1.32.11-1.86.32-.53.21-.98.51-1.34.88-.36.37-.64.8-.83,1.29-.19.49-.29,1.02-.29,1.6,0,1.13.27,2,.82,2.62.54.62,1.23,1.11,2.05,1.49.82.37,1.71.7,2.67.98.96.28,1.85.64,2.67,1.09s1.5,1.04,2.05,1.79c.54.75.82,1.79.82,3.13,0,1.11-.17,2.08-.5,2.91s-.8,1.53-1.41,2.09c-.61.57-1.33.99-2.18,1.26-.84.28-1.79.42-2.83.42-2.15,0-3.8-.56-4.94-1.7-1.14-1.13-1.71-2.83-1.71-5.09v-.67h2.05v.86c0,1.47.38,2.65,1.14,3.53.76.88,1.89,1.33,3.41,1.33s2.63-.37,3.55-1.12c.92-.75,1.38-1.92,1.38-3.52,0-.85-.16-1.55-.48-2.1s-.74-1-1.25-1.36c-.51-.36-1.1-.66-1.77-.9-.67-.23-1.35-.46-2.03-.69-.68-.22-1.36-.48-2.03-.77s-1.26-.66-1.78-1.1c-.51-.45-.93-1.01-1.25-1.7s-.48-1.55-.48-2.59c0-.9.14-1.72.43-2.46.29-.75.7-1.38,1.23-1.9.53-.52,1.19-.93,1.97-1.23.78-.3,1.67-.45,2.67-.45,2.13,0,3.7.53,4.7,1.58,1,1.06,1.5,2.61,1.5,4.65h-2.05Z"/>
    <path d="m248.75,451.26h11.32v1.73h-9.28v8.32h8.67v1.73h-8.67v9.34h9.56v1.73h-11.61v-22.84Z"/>
    <path d="m267.88,451.26h2.56l6.75,22.84h-2.18l-1.86-6.65h-8l-1.86,6.65h-2.18l6.75-22.84Zm4.83,14.46l-3.52-12.86h-.06l-3.52,12.86h7.1Z"/>
    <path d="m288.96,457.11c0-1.41-.33-2.51-.99-3.31s-1.7-1.2-3.1-1.2c-.7,0-1.32.11-1.86.32-.53.21-.98.51-1.34.88-.36.37-.64.8-.83,1.29-.19.49-.29,1.02-.29,1.6,0,1.13.27,2,.82,2.62.54.62,1.23,1.11,2.05,1.49.82.37,1.71.7,2.67.98.96.28,1.85.64,2.67,1.09s1.5,1.04,2.05,1.79c.54.75.82,1.79.82,3.13,0,1.11-.17,2.08-.5,2.91s-.8,1.53-1.41,2.09c-.61.57-1.33.99-2.18,1.26-.84.28-1.79.42-2.83.42-2.15,0-3.8-.56-4.94-1.7-1.14-1.13-1.71-2.83-1.71-5.09v-.67h2.05v.86c0,1.47.38,2.65,1.14,3.53.76.88,1.89,1.33,3.41,1.33s2.63-.37,3.55-1.12c.92-.75,1.38-1.92,1.38-3.52,0-.85-.16-1.55-.48-2.1s-.74-1-1.25-1.36c-.51-.36-1.1-.66-1.77-.9-.67-.23-1.35-.46-2.03-.69-.68-.22-1.36-.48-2.03-.77s-1.26-.66-1.78-1.1c-.51-.45-.93-1.01-1.25-1.7s-.48-1.55-.48-2.59c0-.9.14-1.72.43-2.46.29-.75.7-1.38,1.23-1.9.53-.52,1.19-.93,1.97-1.23.78-.3,1.67-.45,2.67-.45,2.13,0,3.7.53,4.7,1.58,1,1.06,1.5,2.61,1.5,4.65h-2.05Z"/>
    <path d="m301.79,462.68c0-4.09.63-7.08,1.89-8.97,1.26-1.89,3.06-2.83,5.41-2.83s4.12.94,5.39,2.83c1.27,1.89,1.9,4.88,1.9,8.97s-.63,7.09-1.9,8.97c-1.27,1.89-3.07,2.83-5.39,2.83s-4.15-.94-5.41-2.83c-1.26-1.89-1.89-4.88-1.89-8.97Zm2.05,0c0,1.86.12,3.42.37,4.7.24,1.28.59,2.32,1.04,3.12.45.8,1,1.38,1.65,1.73s1.38.53,2.19.53,1.54-.18,2.19-.53,1.2-.93,1.65-1.73.79-1.84,1.04-3.12c.25-1.28.37-2.85.37-4.7s-.12-3.42-.37-4.7c-.25-1.28-.59-2.32-1.04-3.12s-1-1.38-1.65-1.73-1.38-.53-2.19-.53-1.54.18-2.19.53-1.2.93-1.65,1.73c-.45.8-.79,1.84-1.04,3.12-.25,1.28-.37,2.85-.37,4.7Z"/>
    <path d="m319.77,451.26h11.32v1.73h-9.28v8.32h8.67v1.73h-8.67v11.07h-2.05v-22.84Z"/>
    <path d="m351.08,457.11c0-1.41-.33-2.51-.99-3.31s-1.7-1.2-3.1-1.2c-.7,0-1.32.11-1.86.32-.53.21-.98.51-1.34.88-.36.37-.64.8-.83,1.29-.19.49-.29,1.02-.29,1.6,0,1.13.27,2,.82,2.62.54.62,1.23,1.11,2.05,1.49.82.37,1.71.7,2.67.98.96.28,1.85.64,2.67,1.09s1.5,1.04,2.05,1.79c.54.75.82,1.79.82,3.13,0,1.11-.17,2.08-.5,2.91s-.8,1.53-1.41,2.09c-.61.57-1.33.99-2.18,1.26-.84.28-1.79.42-2.83.42-2.15,0-3.8-.56-4.94-1.7-1.14-1.13-1.71-2.83-1.71-5.09v-.67h2.05v.86c0,1.47.38,2.65,1.14,3.53.76.88,1.89,1.33,3.41,1.33s2.63-.37,3.55-1.12c.92-.75,1.38-1.92,1.38-3.52,0-.85-.16-1.55-.48-2.1s-.74-1-1.25-1.36c-.51-.36-1.1-.66-1.77-.9-.67-.23-1.35-.46-2.03-.69-.68-.22-1.36-.48-2.03-.77s-1.26-.66-1.78-1.1c-.51-.45-.93-1.01-1.25-1.7s-.48-1.55-.48-2.59c0-.9.14-1.72.43-2.46.29-.75.7-1.38,1.23-1.9.53-.52,1.19-.93,1.97-1.23.78-.3,1.67-.45,2.67-.45,2.13,0,3.7.53,4.7,1.58,1,1.06,1.5,2.61,1.5,4.65h-2.05Z"/>
    <path d="m356.1,451.26h2.05v16.41c0,3.39,1.49,5.09,4.48,5.09s4.48-1.7,4.48-5.09v-16.41h2.05v16.44c0,2.41-.56,4.14-1.68,5.2-1.12,1.06-2.73,1.58-4.85,1.58s-3.73-.53-4.85-1.58-1.68-2.79-1.68-5.2v-16.44Z"/>
    <path d="m386.3,466.35c-.15,2.62-.8,4.63-1.95,6.03s-2.76,2.09-4.83,2.09c-2.35,0-4.15-.94-5.41-2.83-1.26-1.89-1.89-4.88-1.89-8.97s.63-7.08,1.89-8.97c1.26-1.89,3.06-2.83,5.41-2.83,1.15,0,2.14.19,2.97.58.83.38,1.51.9,2.05,1.54.53.64.92,1.39,1.17,2.24.25.85.37,1.75.37,2.69h-2.05c0-1.56-.38-2.83-1.15-3.82-.77-.99-1.89-1.49-3.36-1.49-.81,0-1.54.18-2.19.53s-1.2.93-1.65,1.73c-.45.8-.79,1.84-1.04,3.12-.25,1.28-.37,2.85-.37,4.7s.12,3.42.37,4.7c.24,1.28.59,2.32,1.04,3.12.45.8,1,1.38,1.65,1.73s1.38.53,2.19.53c1.45,0,2.57-.57,3.37-1.71s1.25-2.7,1.36-4.69h2.05Z"/>
    <path d="m402.9,466.35c-.15,2.62-.8,4.63-1.95,6.03s-2.76,2.09-4.83,2.09c-2.35,0-4.15-.94-5.41-2.83-1.26-1.89-1.89-4.88-1.89-8.97s.63-7.08,1.89-8.97c1.26-1.89,3.06-2.83,5.41-2.83,1.15,0,2.14.19,2.97.58.83.38,1.51.9,2.05,1.54.53.64.92,1.39,1.17,2.24.25.85.37,1.75.37,2.69h-2.05c0-1.56-.38-2.83-1.15-3.82-.77-.99-1.89-1.49-3.36-1.49-.81,0-1.54.18-2.19.53s-1.2.93-1.65,1.73c-.45.8-.79,1.84-1.04,3.12-.25,1.28-.37,2.85-.37,4.7s.12,3.42.37,4.7c.24,1.28.59,2.32,1.04,3.12.45.8,1,1.38,1.65,1.73s1.38.53,2.19.53c1.45,0,2.57-.57,3.37-1.71s1.25-2.7,1.36-4.69h2.05Z"/>
    <path d="m405.62,451.26h11.32v1.73h-9.28v8.32h8.67v1.73h-8.67v9.34h9.56v1.73h-11.61v-22.84Z"/>
    <path d="m429.83,457.11c0-1.41-.33-2.51-.99-3.31s-1.7-1.2-3.1-1.2c-.7,0-1.32.11-1.86.32-.53.21-.98.51-1.34.88-.36.37-.64.8-.83,1.29-.19.49-.29,1.02-.29,1.6,0,1.13.27,2,.82,2.62.54.62,1.23,1.11,2.05,1.49.82.37,1.71.7,2.67.98.96.28,1.85.64,2.67,1.09s1.5,1.04,2.05,1.79c.54.75.82,1.79.82,3.13,0,1.11-.17,2.08-.5,2.91s-.8,1.53-1.41,2.09c-.61.57-1.33.99-2.18,1.26-.84.28-1.79.42-2.83.42-2.15,0-3.8-.56-4.94-1.7-1.14-1.13-1.71-2.83-1.71-5.09v-.67h2.05v.86c0,1.47.38,2.65,1.14,3.53.76.88,1.89,1.33,3.41,1.33s2.63-.37,3.55-1.12c.92-.75,1.38-1.92,1.38-3.52,0-.85-.16-1.55-.48-2.1s-.74-1-1.25-1.36c-.51-.36-1.1-.66-1.77-.9-.67-.23-1.35-.46-2.03-.69-.68-.22-1.36-.48-2.03-.77s-1.26-.66-1.78-1.1c-.51-.45-.93-1.01-1.25-1.7s-.48-1.55-.48-2.59c0-.9.14-1.72.43-2.46.29-.75.7-1.38,1.23-1.9.53-.52,1.19-.93,1.97-1.23.78-.3,1.67-.45,2.67-.45,2.13,0,3.7.53,4.7,1.58,1,1.06,1.5,2.61,1.5,4.65h-2.05Z"/>
    <path d="m445.19,457.11c0-1.41-.33-2.51-.99-3.31s-1.7-1.2-3.1-1.2c-.7,0-1.32.11-1.86.32-.53.21-.98.51-1.34.88-.36.37-.64.8-.83,1.29-.19.49-.29,1.02-.29,1.6,0,1.13.27,2,.82,2.62.54.62,1.23,1.11,2.05,1.49.82.37,1.71.7,2.67.98.96.28,1.85.64,2.67,1.09s1.5,1.04,2.05,1.79c.54.75.82,1.79.82,3.13,0,1.11-.17,2.08-.5,2.91s-.8,1.53-1.41,2.09c-.61.57-1.33.99-2.18,1.26-.84.28-1.79.42-2.83.42-2.15,0-3.8-.56-4.94-1.7-1.14-1.13-1.71-2.83-1.71-5.09v-.67h2.05v.86c0,1.47.38,2.65,1.14,3.53.76.88,1.89,1.33,3.41,1.33s2.63-.37,3.55-1.12c.92-.75,1.38-1.92,1.38-3.52,0-.85-.16-1.55-.48-2.1s-.74-1-1.25-1.36c-.51-.36-1.1-.66-1.77-.9-.67-.23-1.35-.46-2.03-.69-.68-.22-1.36-.48-2.03-.77s-1.26-.66-1.78-1.1c-.51-.45-.93-1.01-1.25-1.7s-.48-1.55-.48-2.59c0-.9.14-1.72.43-2.46.29-.75.7-1.38,1.23-1.9.53-.52,1.19-.93,1.97-1.23.78-.3,1.67-.45,2.67-.45,2.13,0,3.7.53,4.7,1.58,1,1.06,1.5,2.61,1.5,4.65h-2.05Z"/>
  </g>
  <rect class="cls-1" x="1" y="1" width="510" height="610"/>
</svg>